<svg xmlns="http://www.w3.org/2000/svg" width="1200" height="320" viewBox="0 0 1200 320" role="img" aria-labelledby="title">
  <title id="title">herdwatch</title>
  <rect width="1200" height="320" fill="#fff"/>
  <g transform="translate(72 46)">
    <g fill="none" stroke="#202327" stroke-linecap="round" stroke-linejoin="round">
      <path d="M62 79V55c0-25 17-41 50-41s50 16 50 41v24" stroke-width="12"/>
      <path d="M51 83h122l17 22H34z" fill="#202327" stroke="none"/>
      <path d="M34 105h156" stroke-width="12"/>
      <path d="M51 117v78c0 13 8 22 21 22h80c13 0 21-9 21-22v-78" stroke-width="13"/>
      <path d="M42 217h140l16 27H26z" fill="#202327" stroke="none"/>
    </g>
    <path d="m82 147 27 25-27 25" fill="none" stroke="#202327" stroke-width="14" stroke-linecap="round" stroke-linejoin="round"/>
    <circle cx="139" cy="186" r="10" fill="#cde21c"/>
  </g>
  <text x="310" y="215" fill="#17191d" font-family="Arial, Helvetica, sans-serif" font-size="150" font-weight="700" letter-spacing="-7">herdwatch</text>
</svg>
